<svg width="313" height="199" viewBox="0 0 313 199" fill="none" xmlns="http://www.w3.org/2000/svg">
<path fill-rule="evenodd" clip-rule="evenodd" d="M20.2045 196.363H8.84424V107.131H20.0131L70.4323 177.194H71.0067V107.131H82.3669V196.363H71.1981L20.7789 126.548H20.2045V196.363ZM143.461 105.647C169.565 105.647 185.903 123.456 185.903 151.778C185.903 180.1 169.565 197.848 143.461 197.848C117.358 197.848 101.02 180.1 101.02 151.778C101.02 123.456 117.358 105.647 143.461 105.647ZM143.461 115.912C124.634 115.912 112.827 129.764 112.827 151.778C112.827 173.731 124.634 187.582 143.461 187.582C162.289 187.582 174.096 173.731 174.096 151.778C174.096 129.764 162.289 115.912 143.461 115.912ZM252.486 125.559L231.233 196.363H220.384L195.302 107.131H207.3L225.745 179.976H226.255L246.997 107.131H258.613L279.355 179.976H279.866L298.31 107.131H310.309L285.227 196.363H274.377L253.124 125.559H252.486Z" fill="black" fill-opacity="0.44"/>
<path fill-rule="evenodd" clip-rule="evenodd" d="M45.3857 36.6027H37.6519C36.657 31.3693 32.3152 27.2282 24.9885 27.2282C16.486 27.2282 10.697 34.3273 10.697 45.158C10.697 56.3073 16.5764 63.0878 25.079 63.0878C31.8629 63.0878 36.3856 59.9023 37.7424 53.9864H45.4761C44.1645 63.5429 36.1595 70.1415 25.0338 70.1415C11.6467 70.1415 2.69189 60.585 2.69189 45.158C2.69189 30.0951 11.6015 20.1746 24.9433 20.1746C37.0188 20.1746 44.3907 28.0018 45.3857 36.6027ZM55.0249 69.6864V1.15259H62.8943V28.5934H63.0752C66.1054 23.0415 71.0803 20.1746 78.5427 20.1746C89.2161 20.1746 95.7287 27.4557 95.7287 38.3775V69.6864H87.8593V39.7882C87.8593 31.9609 83.9246 27.2282 76.1909 27.2282C67.9597 27.2282 62.8943 32.8711 62.8943 41.4719V69.6864H55.0249ZM123.639 63.2699C131.599 63.2699 137.434 58.0821 137.434 51.0284V47.0693L124.68 47.8885C117.353 48.3435 113.554 51.0284 113.554 55.7612C113.554 60.3119 117.489 63.2699 123.639 63.2699ZM121.966 70.1415C112.061 70.1415 105.504 64.4076 105.504 55.7157C105.504 47.2969 111.926 42.3366 123.775 41.6085L137.434 40.7893V36.6937C137.434 30.5957 133.454 27.2282 126.263 27.2282C120.609 27.2282 116.403 30.1407 115.453 34.7824H107.901C108.127 26.5001 116.132 20.1746 126.353 20.1746C137.886 20.1746 145.303 26.3636 145.303 36.0111V69.6864H137.841V61.1765H137.66C134.901 66.6374 128.795 70.1415 121.966 70.1415ZM157.294 69.6864V20.6297H164.711V28.5934H164.892C167.967 23.0415 172.807 20.1746 180.359 20.1746C191.078 20.1746 197.274 27.0917 197.274 38.2409V69.6864H189.405V39.6061C189.405 31.5969 185.696 27.2282 178.008 27.2282C170.003 27.2282 165.163 32.7801 165.163 41.1989V69.6864H157.294ZM228.984 62.6328C237.532 62.6328 243.321 55.4881 243.321 44.976C243.321 34.4183 237.532 27.2282 228.984 27.2282C220.481 27.2282 214.918 34.2363 214.918 44.976C214.918 55.6702 220.481 62.6328 228.984 62.6328ZM229.12 87.2066C218.084 87.2066 210.079 81.8368 208.949 73.691H217.135C218.31 77.7867 223.15 80.3351 229.572 80.3351C237.984 80.3351 243.321 75.9209 243.321 68.9583V61.2676H243.14C240.064 66.5919 234.321 69.6864 227.491 69.6864C215.145 69.6864 206.868 59.8113 206.868 44.976C206.868 30.0041 215.145 20.1746 227.672 20.1746C234.547 20.1746 240.291 23.2236 243.547 28.5934H243.683V20.6297H251.19V68.3212C251.19 80.062 242.823 87.2066 229.12 87.2066ZM282.855 27.1372C275.211 27.1372 269.694 32.7346 269.151 41.0169H295.97C295.789 32.6891 290.543 27.1372 282.855 27.1372ZM295.789 55.6702H303.568C302.212 64.089 293.754 70.1415 283.352 70.1415C269.648 70.1415 261.01 60.5394 261.01 45.34C261.01 30.1407 269.694 20.1746 282.99 20.1746C296.016 20.1746 304.156 29.4125 304.156 44.2479V47.3424H269.151V47.7974C269.151 57.1264 274.85 63.1789 283.533 63.1789C289.639 63.1789 294.387 60.2664 295.789 55.6702Z" fill="black" fill-opacity="0.25"/>
</svg>
