<?xml version="1.0" encoding="UTF-8"?>
<svg width="635px" height="635px" viewBox="0 0 635 635" version="1.1" xmlns="http://www.w3.org/2000/svg" xmlns:xlink="http://www.w3.org/1999/xlink">
    <!-- Generator: Sketch 43.2 (39069) - http://www.bohemiancoding.com/sketch -->
    <title>logo-color-center</title>
    <desc>Created with Sketch.</desc>
    <defs>
        <linearGradient x1="50%" y1="0%" x2="50%" y2="97.2317443%" id="linearGradient-1">
            <stop stop-color="#007BFF" offset="0%"></stop>
            <stop stop-color="#0069D9" offset="100%"></stop>
        </linearGradient>
    </defs>
    <g id="o3-wallet" stroke="none" stroke-width="1" fill="none" fill-rule="evenodd">
        <g id="logo-color-center">
            <g id="Group">
                <rect id="Rectangle" x="0" y="0" width="635" height="635"></rect>
                <g id="logo-white" transform="translate(96.000000, 101.000000)" fill="url(#linearGradient-1)">
                    <path d="M309.560306,120.975678 C285.516667,94.6244081 255.963471,81.448971 220.89983,81.448971 C185.83619,81.448971 156.282993,94.6244081 132.239354,120.975678 C108.195715,147.326947 96.1740757,179.167587 96.1740757,216.498552 C96.1740757,253.829517 108.195715,285.570342 132.239354,311.721981 C156.282993,337.87362 185.83619,350.949243 220.89983,350.949243 C255.963471,350.949243 285.516667,337.87362 309.560306,311.721981 C333.603945,285.570342 345.625585,253.829517 345.625585,216.498552 C345.625585,179.167587 333.603945,147.326947 309.560306,120.975678 Z M220.599286,432.398214 C158.486552,432.398214 106.192421,411.736733 63.7153252,370.413151 C21.2382293,329.08957 0,277.685402 0,216.199107 C0,154.712812 21.2382293,103.308644 63.7153252,61.9850625 C106.192421,20.6614809 158.486552,0 220.599286,0 C282.712021,0 335.006151,20.6614809 377.483247,61.9850625 C419.960343,103.308644 441.198572,154.712812 441.198572,216.199107 C441.198572,277.685402 419.960343,329.08957 377.483247,370.413151 C335.006151,411.736733 282.712021,432.398214 220.599286,432.398214 Z" id="O"></path>
                </g>
                <path d="M515.631522,496.532476 L515.631522,474 L588.408227,474 L588.408227,492.297048 L564.092646,519.912038 C573.614879,521.493272 580.983164,525.474534 586.19772,531.855944 C591.412276,538.237354 594.019515,545.606924 594.019515,553.964877 C594.019515,566.388861 589.796922,576.130247 581.351608,583.189329 C572.906293,590.248411 562.108923,593.777899 548.959172,593.777899 C535.809421,593.777899 522.489831,589.14721 509,579.885695 L519.882498,558.877973 C531.10513,566.784145 541.137333,570.737171 549.979406,570.737171 C555.307323,570.737171 559.699954,569.43832 563.157431,566.840578 C566.614909,564.242836 568.343622,560.487461 568.343622,555.57434 C568.343622,550.661219 566.359853,546.764664 562.392256,543.884559 C558.424658,541.004454 552.926785,539.564423 545.89847,539.564423 C542.157592,539.564423 536.886435,540.637387 530.08484,542.783348 L530.08484,523.30038 L552.87007,496.532476 L515.631522,496.532476 Z" id="3" fill="#0069D9"></path>
            </g>
        </g>
    </g>
</svg>